:version 1.10
:name ASF
:units
  mass 1
  length 1
  angle deg
:documentation
  ASF file generated by Kaydara
:root
  axis xyz
  order  tx ty tz rx ry rz
  position 0 0 0
  orientation 0 0 0
:bonedata
  begin
    id 1
    name RightUpLegDummy
    direction -0.718183 -0.695806 0.00816078
    length 4.904
    axis 0 0 0 xyz
  end
  begin
    id 2
    name RightUpLeg
    direction 3.53989e-006 -0.995788 0.0916897
    length 17.4976
    axis -3.49089 -0.000906621 0.000287158 xyz
    dof rx ry rz
  end
  begin
    id 3
    name RightLeg
    direction 0.00371093 -0.995096 -0.0988418
    length 16.5821
    axis 3.68512 0.0193738 -0.131023 xyz
    dof rx ry rz
  end
  begin
    id 4
    name RightFoot
    direction 0.000791514 -0.46099 0.887405
    length 3.77069
    axis 4.84075e-005 -0.120479 -0.188788 xyz
    dof rx ry rz
  end
  begin
    id 5
    name RightToes
    direction 0.00124746 -0.014064 0.9999
    length 3.85082
    axis 0.00048216 0.542163 -0.142577 xyz
    dof rx ry rz
  end
  begin
    id 6
    name SpineDummy
    direction 8.36599e-015 1 5.97571e-016
    length 4.6813
    axis 0 0 0 xyz
  end
  begin
    id 7
    name Spine
    direction -4.63632e-008 0.999988 0.00495137
    length 10.1015
    axis -0.00138897 0.000121419 3.25764e-006 xyz
    dof rx ry rz
  end
  begin
    id 8
    name Spine1
    direction 0 0 0
    length 0
    axis -0.00138896 0.000121452 2.39764e-006 xyz
    dof rx ry rz
  end
  begin
    id 9
    name HEadDummy
    direction -3.91456e-008 0.999999 0.00127422
    length 3.43865
    axis -0.00138896 0.000121452 2.39764e-006 xyz
  end
  begin
    id 10
    name HEad
    direction -0.0222688 0.980941 0.193023
    length 5.12695
    axis -0.00138895 0.000121452 2.39764e-006 xyz
    dof rx ry rz
  end
  begin
    id 11
    name LeftShoulder1Dummy
    direction 0.998891 -0.0402508 -0.0244456
    length 3.5433
    axis -0.00138896 0.000121452 2.39764e-006 xyz
  end
  begin
    id 12
    name LeftShoulder1
    direction 0.99951 -0.000327743 0.0313091
    length 4.05031
    axis -0.00138896 0.000121452 2.39764e-006 xyz
    dof rx ry rz
  end
  begin
    id 13
    name LeftArm
    direction 0.998561 -0.00100054 -0.0536182
    length 10.3537
    axis -23.1894 0.134784 0.96751 xyz
    dof rx ry rz
  end
  begin
    id 14
    name LeftForeArm
    direction 0.998903 0.00866434 0.046012
    length 8.70632
    axis -9.91835 -0.06569 -0.177792 xyz
    dof rx ry rz
  end
  begin
    id 15
    name LeftHand
    direction 0.992938 -0.0411636 0.11126
    length 5.32135
    axis -0.00960227 -0.00340091 0.185174 xyz
    dof rx ry rz
  end
  begin
    id 16
    name RightShoulderDummy
    direction -0.998891 -0.0402509 -0.0244414
    length 3.5433
    axis -0.00138896 0.000121452 2.39764e-006 xyz
  end
  begin
    id 17
    name RightShoulder
    direction -0.99951 -0.000327827 0.0313133
    length 4.05031
    axis 0.215806 0.000203644 -0.00680151 xyz
    dof rx ry rz
  end
  begin
    id 18
    name RightArm
    direction -0.998573 -0.000999583 -0.053403
    length 10.3947
    axis -23.2009 -0.134239 -0.9641 xyz
    dof rx ry rz
  end
  begin
    id 19
    name RightForeArm
    direction -0.998898 0.00868026 0.0461306
    length 8.68355
    axis -9.92322 0.0658061 0.178869 xyz
    dof rx ry rz
  end
  begin
    id 20
    name RightHand
    direction -0.992843 -0.0414603 0.112003
    length 5.28593
    axis -0.00960634 0.00330671 -0.185226 xyz
    dof rx ry rz
  end
  begin
    id 21
    name LeftUpLegDummy
    direction 0.718183 -0.695806 0.00816078
    length 4.904
    axis 0 0 0 xyz
  end
  begin
    id 22
    name LeftUpLeg
    direction -6.8115e-006 -0.995793 0.0916336
    length 17.4976
    axis -3.48766 0.00143441 -0.000523914 xyz
    dof rx ry rz
  end
  begin
    id 23
    name LeftLeg
    direction -0.00601357 -0.995091 -0.0987824
    length 16.5821
    axis 3.68177 -0.00654038 -0.00028478 xyz
    dof rx ry rz
  end
  begin
    id 24
    name LeftFoot
    direction -0.00417578 -0.460984 0.887399
    length 3.77069
    axis 1.87232e-006 4.66002e-005 -8.1837e-006 xyz
    dof rx ry rz
  end
  begin
    id 25
    name LeftToes
    direction 0.00818058 -0.00485161 0.999955
    length 3.85048
    axis 1.06246e-005 4.65855e-005 -8.18502e-006 xyz
    dof rx ry rz
  end
:hierarchy
  begin
    root RightUpLegDummy SpineDummy LeftUpLegDummy
    RightUpLegDummy RightUpLeg
    RightUpLeg RightLeg
    RightLeg RightFoot
    RightFoot RightToes
    SpineDummy Spine
    Spine Spine1
    Spine1 HEadDummy LeftShoulder1Dummy RightShoulderDummy
    HEadDummy HEad
    LeftShoulder1Dummy LeftShoulder1
    LeftShoulder1 LeftArm
    LeftArm LeftForeArm
    LeftForeArm LeftHand
    RightShoulderDummy RightShoulder
    RightShoulder RightArm
    RightArm RightForeArm
    RightForeArm RightHand
    LeftUpLegDummy LeftUpLeg
    LeftUpLeg LeftLeg
    LeftLeg LeftFoot
    LeftFoot LeftToes
  end

:SAMPLES-PER-SECOND 30
:FULLY-SPECIFIED
:DEGREES
1
root  -2.18585 40.5396 14.1985 -177.627 -1.76831 179.288
RightUpLeg  -7.659 -3.60293 -2.69464
RightLeg  4.98947 6.5197 -1.37884
RightFoot  1.2305 -0.166125 1.58379
RightToes  -5.8209e-011 0 -3.6325e-017
Spine  17.6752 0.443192 7.46986
Spine1  17.4251 0.973457 1.86555
HEad  11.0908 -11.3626 -0.841926
LeftShoulder1  6.65577 -14.3054 -31.3524
LeftArm  20.9605 -4.58661 -48.7904
LeftForeArm  2.54873 -19.9221 -6.2233
LeftHand  -0.246645 0.021 5.37786
RightShoulder  8.26539 15.6976 37.0151
RightArm  29.2777 17.6455 33.8931
RightForeArm  -28.5299 21.4994 7.31111
RightHand  -0.24729 -0.0210522 -5.37781
LeftUpLeg  -5.1978 6.12506 1.66998
LeftLeg  0.341567 -1.46516 -4.15953
LeftFoot  3.64923 -0.145246 0.935997
LeftToes  -7.45818e-011 -3.37383e-011 1.08613e-011
2
root  -2.04593 40.5482 14.2278 -177.6 -2.18759 179.216
RightUpLeg  -7.60092 -3.76412 -2.62354
RightLeg  4.8449 6.22949 -1.29568
RightFoot  1.30948 -0.146187 1.39901
RightToes  -5.8209e-011 0 -3.6325e-017
Spine  18.0713 0.316762 7.86395
Spine1  17.5428 0.920446 1.88724
HEad  11.2271 -11.5845 -0.764251
LeftShoulder1  6.6397 -14.3127 -31.2459
LeftArm  21.0751 -4.67894 -49.1817
LeftForeArm  3.3905 -20.1652 -6.02058
LeftHand  -0.246645 0.021 5.37786
RightShoulder  8.34239 15.7776 37.2283
RightArm  30.5791 17.7143 33.7809
RightForeArm  -27.6843 22.3994 6.79309
RightHand  -0.24729 -0.0210522 -5.37781
LeftUpLeg  -5.25908 6.05017 1.74351
LeftLeg  0.191128 -1.82104 -4.07964
LeftFoot  3.87413 -0.117638 0.705417
LeftToes  -7.45818e-011 -3.37383e-011 1.08613e-011
3
root  -1.78235 40.5621 14.2687 -177.543 -2.89156 179.052
RightUpLeg  -7.50726 -3.97043 -2.49575
RightLeg  4.60954 5.68031 -1.18109
RightFoot  1.39355 -0.112982 1.09725
RightToes  -5.8209e-011 0 -3.6325e-017
Spine  18.6138 0.131997 8.53766
Spine1  17.9117 0.85261 1.93426
HEad  11.5032 -11.9873 -0.650774
LeftShoulder1  6.61909 -14.308 -31.1391
LeftArm  21.3951 -4.94354 -49.7608
LeftForeArm  4.44762 -20.6814 -5.65446
LeftHand  -0.246645 0.021 5.37786
RightShoulder  8.43405 15.8787 37.4668
RightArm  31.6724 17.8899 33.6168
RightForeArm  -24.5904 24.1442 6.28676
RightHand  -0.24729 -0.0210522 -5.37781
LeftUpLeg  -5.31492 5.91673 1.8681
LeftLeg  -0.164148 -2.44678 -3.93485
LeftFoot  4.27534 -0.0724312 0.33939
LeftToes  -7.45818e-011 -3.37383e-011 1.08613e-011
4
root  -1.50082 40.5695 14.296 -177.447 -3.62682 178.874
RightUpLeg  -7.49973 -4.06524 -2.33652
RightLeg  4.51536 5.00439 -1.10649
RightFoot  1.36539 -0.0802681 0.803916
RightToes  -5.8209e-011 0 -3.6325e-017
Spine  18.9439 -0.0497274 9.17137
Spine1  18.3544 0.766552 1.97725
HEad  11.8205 -12.3926 -0.620071
LeftShoulder1  6.59854 -14.2768 -31.0886
LeftArm  21.7597 -5.26265 -50.2041
LeftForeArm  4.85212 -21.2926 -5.31194
LeftHand  -0.246645 0.021 5.37786
RightShoulder  8.46826 15.9182 37.551
RightArm  30.5869 18.0609 33.4583
RightForeArm  -20.3569 26.0087 6.55864
RightHand  -0.24729 -0.0210522 -5.37781
LeftUpLeg  -5.39525 5.80587 2.01468
LeftLeg  -0.524622 -3.13712 -3.79833
LeftFoot  4.64796 -0.0210561 -0.0513031
LeftToes  -7.45818e-011 -3.37383e-011 1.08613e-011
5
root  -1.23627 40.5595 14.3124 -177.357 -4.32549 178.763
RightUpLeg  -7.6629 -4.03817 -2.10995
RightLeg  4.78618 4.26069 -1.05305
RightFoot  1.16602 -0.045959 0.491699
RightToes  -5.8209e-011 0 -3.6325e-017
Spine  19.1635 -0.234749 9.67128
Spine1  18.6207 0.645144 2.02423
HEad  12.0919 -12.6882 -0.677883
LeftShoulder1  6.58624 -14.2479 -31.0798
LeftArm  22.1024 -5.46498 -50.4137
LeftForeArm  4.69197 -21.9462 -5.04568
LeftHand  -0.246645 0.021 5.37786
RightShoulder  8.45396 15.9014 37.5164
RightArm  28.8959 18.0933 33.3898
RightForeArm  -18.5245 27.6765 6.88579
RightHand  -0.24729 -0.0210522 -5.37781
LeftUpLeg  -5.64205 5.77649 2.22028
LeftLeg  -0.501659 -3.81178 -3.70721
LeftFoot  4.80271 0.0382786 -0.475774
LeftToes  -7.45818e-011 -3.37383e-011 1.08613e-011
6
root  -0.96852 40.5448 14.3314 -177.302 -4.99628 178.7
RightUpLeg  -7.87375 -3.95454 -1.82553
RightLeg  5.18843 3.47544 -0.995911
RightFoot  0.949629 -0.00561487 0.112165
RightToes  -5.8209e-011 0 -3.6325e-017
Spine  19.5347 -0.440687 10.1082
Spine1  18.6225 0.524539 2.03837
HEad  12.2944 -12.8881 -0.706475
LeftShoulder1  6.58548 -14.2511 -31.0691
LeftArm  22.4097 -5.50826 -50.4348
LeftForeArm  4.6382 -22.6528 -4.85234
LeftHand  -0.246645 0.021 5.37786
RightShoulder  8.43856 15.8886 37.4675
RightArm  27.0827 18.0539 33.4107
RightForeArm  -18.1932 28.8839 7.17168
RightHand  -0.24729 -0.0210522 -5.37781
LeftUpLeg  -5.96973 5.80644 2.47175
LeftLeg  -0.258185 -4.47205 -3.63783
LeftFoot  4.86366 0.090297 -0.842031
LeftToes  -7.45818e-011 -3.37383e-011 1.08613e-011
